<mxfile host="app.diagrams.net" modified="2023-11-14T02:33:02.512Z" agent="Mozilla/5.0 (Windows NT 10.0; Win64; x64) AppleWebKit/537.36 (KHTML, like Gecko) Chrome/119.0.0.0 Safari/537.36 Edg/119.0.0.0" etag="m1qntEDSzXf0BEZJo8OD" version="22.1.0" type="github">
  <diagram name="第 1 页" id="5UsdjnFY7WK5ztOsF0Nz">
    <mxGraphModel dx="1860" dy="918" grid="1" gridSize="10" guides="1" tooltips="1" connect="1" arrows="1" fold="1" page="1" pageScale="1" pageWidth="827" pageHeight="1169" math="0" shadow="0">
      <root>
        <mxCell id="0" />
        <mxCell id="1" parent="0" />
        <mxCell id="as4QMCTj-aJG5uXCAyYw-7" value="" style="rounded=0;orthogonalLoop=1;jettySize=auto;html=1;" edge="1" parent="1" source="bOatdIjji8lzITyU7Xf5-1" target="as4QMCTj-aJG5uXCAyYw-3">
          <mxGeometry relative="1" as="geometry" />
        </mxCell>
        <mxCell id="as4QMCTj-aJG5uXCAyYw-8" style="rounded=0;orthogonalLoop=1;jettySize=auto;html=1;entryX=0.5;entryY=0;entryDx=0;entryDy=0;" edge="1" parent="1" source="bOatdIjji8lzITyU7Xf5-1" target="as4QMCTj-aJG5uXCAyYw-2">
          <mxGeometry relative="1" as="geometry" />
        </mxCell>
        <mxCell id="as4QMCTj-aJG5uXCAyYw-9" style="shape=connector;rounded=0;orthogonalLoop=1;jettySize=auto;html=1;entryX=0.5;entryY=0;entryDx=0;entryDy=0;labelBackgroundColor=default;strokeColor=default;align=center;verticalAlign=middle;fontFamily=Helvetica;fontSize=11;fontColor=default;endArrow=classic;" edge="1" parent="1" source="bOatdIjji8lzITyU7Xf5-1" target="as4QMCTj-aJG5uXCAyYw-5">
          <mxGeometry relative="1" as="geometry" />
        </mxCell>
        <mxCell id="as4QMCTj-aJG5uXCAyYw-11" style="shape=connector;rounded=0;orthogonalLoop=1;jettySize=auto;html=1;entryX=0.5;entryY=0;entryDx=0;entryDy=0;labelBackgroundColor=default;strokeColor=default;align=center;verticalAlign=middle;fontFamily=Helvetica;fontSize=11;fontColor=default;endArrow=classic;" edge="1" parent="1" source="bOatdIjji8lzITyU7Xf5-1" target="as4QMCTj-aJG5uXCAyYw-1">
          <mxGeometry relative="1" as="geometry" />
        </mxCell>
        <mxCell id="bOatdIjji8lzITyU7Xf5-1" value="清华大学校内视频分享平台" style="ellipse;whiteSpace=wrap;html=1;fontFamily=宋体;fontStyle=1;fontSize=17;" parent="1" vertex="1">
          <mxGeometry x="150" y="50" width="120" height="80" as="geometry" />
        </mxCell>
        <mxCell id="as4QMCTj-aJG5uXCAyYw-1" value="视频上传与分享" style="ellipse;whiteSpace=wrap;html=1;fontFamily=宋体;fontStyle=1;fontSize=17;" vertex="1" parent="1">
          <mxGeometry x="-230" y="220" width="120" height="80" as="geometry" />
        </mxCell>
        <mxCell id="as4QMCTj-aJG5uXCAyYw-2" value="用户管理" style="ellipse;whiteSpace=wrap;html=1;fontFamily=宋体;fontStyle=1;fontSize=17;" vertex="1" parent="1">
          <mxGeometry x="-73" y="220" width="120" height="80" as="geometry" />
        </mxCell>
        <mxCell id="as4QMCTj-aJG5uXCAyYw-3" value="用户间交互" style="ellipse;whiteSpace=wrap;html=1;fontFamily=宋体;fontStyle=1;fontSize=17;" vertex="1" parent="1">
          <mxGeometry x="83" y="220" width="120" height="80" as="geometry" />
        </mxCell>
        <mxCell id="as4QMCTj-aJG5uXCAyYw-5" value="统计和分析" style="ellipse;whiteSpace=wrap;html=1;fontFamily=宋体;fontStyle=1;fontSize=17;" vertex="1" parent="1">
          <mxGeometry x="240" y="220" width="120" height="80" as="geometry" />
        </mxCell>
      </root>
    </mxGraphModel>
  </diagram>
</mxfile>
